<?xml version="1.0"?>
<svg xmlns="http://www.w3.org/2000/svg" xmlns:xlink="http://www.w3.org/1999/xlink" version="1.1" xml:space="preserve">
	<defs>
		<symbol id="email" width="100%" height="100%" viewBox="0 0 22 18">
			<path fill-rule="evenodd" clip-rule="evenodd" d="M1.37868 1.71193C0.5 2.59061 0.5 4.00482 0.5 6.83325V11.1666C0.5 13.995 0.5 15.4092 1.37868 16.2879C2.25736 17.1666 3.67157 17.1666 6.5 17.1666H15.5C18.3284 17.1666 19.7426 17.1666 20.6213 16.2879C21.5 15.4092 21.5 13.995 21.5 11.1666V6.83325C21.5 4.00483 21.5 2.59061 20.6213 1.71193C19.7426 0.833252 18.3284 0.833252 15.5 0.833252H6.5C3.67157 0.833252 2.25736 0.833252 1.37868 1.71193ZM4.5547 4.66787C4.09517 4.36152 3.4743 4.48569 3.16795 4.94522C2.8616 5.40475 2.98577 6.02562 3.4453 6.33197L9.8906 10.6288C10.5624 11.0767 11.4376 11.0767 12.1094 10.6288L18.5547 6.33197C19.0142 6.02562 19.1384 5.40475 18.8321 4.94522C18.5257 4.48569 17.9048 4.36152 17.4453 4.66787L11 8.96474L4.5547 4.66787Z" fill="currentColor" />
		</symbol>
		<symbol id="phone" width="100%" height="100%" viewBox="0 0 22 22">
			<path d="M0.599998 1.9001C0.599998 1.18213 1.18203 0.600098 1.9 0.600098H4.69873C5.33422 0.600098 5.87657 1.05953 5.98105 1.68638L6.94215 7.45301C7.03597 8.01596 6.75167 8.57426 6.24122 8.82949L4.22864 9.83578C5.67982 13.4419 8.55818 16.3203 12.1643 17.7715L13.1706 15.7589C13.4258 15.2484 13.9841 14.9641 14.5471 15.0579L20.3137 16.019C20.9406 16.1235 21.4 16.6659 21.4 17.3014V20.1001C21.4 20.8181 20.818 21.4001 20.1 21.4001H17.5C8.16639 21.4001 0.599998 13.8337 0.599998 4.5001V1.9001Z" fill="currentColor" />
		</symbol>
		<symbol id="menu" width="100%" height="100%" viewBox="0 0 20 18">
			<path fill-rule="evenodd" clip-rule="evenodd" d="M0.199951 2.0001C0.199951 1.2269 0.826752 0.600098 1.59995 0.600098H18.4C19.1732 0.600098 19.8 1.2269 19.8 2.0001C19.8 2.7733 19.1732 3.4001 18.4 3.4001H1.59995C0.826752 3.4001 0.199951 2.7733 0.199951 2.0001Z" fill="currentColor" />
			<path fill-rule="evenodd" clip-rule="evenodd" d="M0.199951 9.0001C0.199951 8.2269 0.826752 7.6001 1.59995 7.6001H18.4C19.1732 7.6001 19.8 8.2269 19.8 9.0001C19.8 9.7733 19.1732 10.4001 18.4 10.4001H1.59995C0.826752 10.4001 0.199951 9.7733 0.199951 9.0001Z" fill="currentColor" />
			<path fill-rule="evenodd" clip-rule="evenodd" d="M0.199951 16.0001C0.199951 15.2269 0.826752 14.6001 1.59995 14.6001H18.4C19.1732 14.6001 19.8 15.2269 19.8 16.0001C19.8 16.7733 19.1732 17.4001 18.4 17.4001H1.59995C0.826752 17.4001 0.199951 16.7733 0.199951 16.0001Z" fill="currentColor" />
		</symbol>
		<symbol id="arrow-right" width="100%" height="100%" viewBox="0 0 15 10">
			<path d="M13 5L13.7071 4.29289L14.4142 5L13.7071 5.70711L13 5ZM1 6C0.447715 6 0 5.55228 0 5C0 4.44772 0.447715 4 1 4V6ZM9.70711 0.292893L13.7071 4.29289L12.2929 5.70711L8.29289 1.70711L9.70711 0.292893ZM13.7071 5.70711L9.70711 9.70711L8.29289 8.29289L12.2929 4.29289L13.7071 5.70711ZM13 6H1V4H13V6Z" fill="currentColor" />
		</symbol>
		<symbol id="arrow-left" width="100%" height="100%" viewBox="0 0 15 10">
			<path d="M2 5L1.29289 4.29289L0.585786 5L1.29289 5.70711L2 5ZM14 6C14.5523 6 15 5.55228 15 5C15 4.44772 14.5523 4 14 4V6ZM5.29289 0.292893L1.29289 4.29289L2.70711 5.70711L6.70711 1.70711L5.29289 0.292893ZM1.29289 5.70711L5.29289 9.70711L6.70711 8.29289L2.70711 4.29289L1.29289 5.70711ZM2 6H14V4H2V6Z" fill="currentColor" />
		</symbol>
		<symbol id="arrow-bottom" width="100%" height="100%" viewBox="0 0 10 7">
			<path d="M4.80794 6.60791L1.09346 2.15053C0.659239 1.62947 1.02976 0.838379 1.70803 0.838379L8.29197 0.838379C8.97024 0.838379 9.34076 1.62946 8.90654 2.15053L5.19206 6.60791C5.09211 6.72785 4.90789 6.72785 4.80794 6.60791Z" fill="currentColor"/>
		</symbol>
		<symbol id="arrow-move" width="100%" height="100%" viewBox="0 0 20 20">
			<path d="M14.1667 5.83325L5.83334 14.1666" stroke="currentColor" stroke-width="2" stroke-linecap="round" stroke-linejoin="round"/>
			<path d="M6.66666 5.83325H14.1667V13.3333" fill="rgba(0, 0, 0, 0)" stroke="currentColor" stroke-width="2" stroke-linecap="round" stroke-linejoin="round"/>
		</symbol>
		<symbol id="gal-ochka" width="100%" height="100%" viewBox="0 0 12 10">
			<path d="M6.23497 8.79946C5.9649 9.16602 5.54433 9.3913 5.0896 9.41369C4.63487 9.43632 4.19445 9.25304 3.88975 8.91464L1.15929 5.88456C0.725328 5.40328 0.763876 4.6614 1.24515 4.22744C1.72689 3.79348 2.46831 3.83226 2.90227 4.31377L4.83407 6.45771C4.8627 6.48956 4.90425 6.50664 4.94695 6.50456C4.98988 6.50249 5.02912 6.48102 5.05475 6.44686L9.02546 1.0614C9.40979 0.539728 10.1443 0.428699 10.6662 0.813259C11.1876 1.19782 11.2984 1.93232 10.9139 2.45376L6.23497 8.79946Z" fill="currentColor" />
		</symbol>
		<symbol id="to-right" width="100%" height="100%" viewBox="0 0 8 14">
			<path d="M5.63663 7.00019L1.15148 2.51504C0.7935 2.15706 0.7935 1.57666 1.15148 1.21868C1.50946 0.8607 2.08986 0.8607 2.44784 1.21868L7.58118 6.35201C7.93916 6.70999 7.93916 7.29039 7.58118 7.64838L2.44784 12.7817C2.08986 13.1397 1.50946 13.1397 1.15148 12.7817C0.7935 12.4237 0.7935 11.8433 1.15148 11.4853L5.63663 7.00019Z" fill="currentColor" />
		</symbol>
		<symbol id="to-left" width="100%" height="100%" viewBox="0 0 8 14">
			<path d="M2.36337 7.00019L6.84852 2.51504C7.2065 2.15706 7.2065 1.57666 6.84852 1.21868C6.49054 0.8607 5.91014 0.8607 5.55216 1.21868L0.418823 6.35201C0.0608425 6.70999 0.0608425 7.29039 0.418823 7.64838L5.55216 12.7817C5.91014 13.1397 6.49054 13.1397 6.84852 12.7817C7.2065 12.4237 7.2065 11.8433 6.84852 11.4853L2.36337 7.00019Z" fill="currentColor" />
		</symbol>
		<symbol id="play" width="100%" height="100%" viewBox="0 0 62 62">
			<path d="M23.9343 14.4273C21.2692 12.7873 17.8379 14.7047 17.8379 17.834V44.1661C17.8379 47.2954 21.2692 49.2128 23.9343 47.5727L45.3292 34.4067C47.8673 32.8447 47.8673 29.1553 45.3292 27.5934L23.9343 14.4273Z" fill="currentColor"/>
		</symbol>
		<symbol id="cross" width="100%" height="100%" viewBox="0 0 16 16">
			<path d="M1 15L15 1M1 1L15 15" fill="none" stroke="currentColor" stroke-width="2" stroke-linecap="round" stroke-linejoin="round" />
		</symbol>
		<symbol id="burger" width="100%" height="100%" viewBox="0 0 48 48">
            <path d="M41,14H7a2,2,0,0,1,0-4H41A2,2,0,0,1,41,14Z" fill="currentColor"/>
            <path d="M41,26H7a2,2,0,0,1,0-4H41A2,2,0,0,1,41,26Z" fill="currentColor"/>
            <path d="M41,38H7a2,2,0,0,1,0-4H41A2,2,0,0,1,41,38Z" fill="currentColor"/>
        </symbol>
		<symbol id="close" width="100%" height="100%" viewBox="0 0 16 16">
            <path d="M1 15L15 1M1 1L15 15" stroke="currentColor" stroke-width="2" stroke-linecap="round" stroke-linejoin="round"/>
        </symbol>
		<symbol id="tg" width="100%" height="100%" viewBox="0 0 24 20">
            <path fill-rule="evenodd" clip-rule="evenodd" d="M2.15831 8.68342C8.33105 5.98707 12.4403 4.19542 14.5038 3.32621C20.3767 0.86047 21.6113 0.434731 22.4049 0.416992C22.5813 0.416992 22.9693 0.452471 23.2338 0.66534C23.4455 0.842731 23.4984 1.07334 23.5336 1.25073C23.5689 1.42812 23.6042 1.80064 23.5689 2.08447C23.2515 5.4549 21.8758 13.6326 21.1704 17.3933C20.8705 18.9898 20.2885 19.522 19.7242 19.5752C18.4896 19.6817 17.5549 18.7592 16.3733 17.9787C14.5038 16.7547 13.4633 15.9919 11.6467 14.7857C9.54797 13.402 10.906 12.6392 12.1052 11.3975C12.4227 11.0782 17.8371 6.11125 17.9429 5.66777C17.9605 5.61455 17.9605 5.40168 17.8371 5.29525C17.7136 5.18881 17.5373 5.22429 17.3962 5.25977C17.2022 5.29525 14.2393 7.28203 8.47214 11.2024C7.6256 11.7878 6.86723 12.0716 6.17941 12.0538C5.42104 12.0361 3.97486 11.6281 2.8814 11.2733C1.55867 10.8476 0.500483 10.617 0.588665 9.87194C0.641575 9.48168 1.17067 9.09142 2.15831 8.68342Z" fill="currentColor"/>
        </symbol>
		<symbol id="in" width="100%" height="100%" viewBox="0 0 24 24">
            <path d="M20.75 0.75C21.413 0.75 22.0489 1.01339 22.5178 1.48223C22.9866 1.95107 23.25 2.58696 23.25 3.25V20.75C23.25 21.413 22.9866 22.0489 22.5178 22.5178C22.0489 22.9866 21.413 23.25 20.75 23.25H3.25C2.58696 23.25 1.95107 22.9866 1.48223 22.5178C1.01339 22.0489 0.75 21.413 0.75 20.75V3.25C0.75 2.58696 1.01339 1.95107 1.48223 1.48223C1.95107 1.01339 2.58696 0.75 3.25 0.75H20.75ZM20.125 20.125V13.5C20.125 12.4192 19.6957 11.3828 18.9315 10.6185C18.1672 9.85433 17.1308 9.425 16.05 9.425C14.9875 9.425 13.75 10.075 13.15 11.05V9.6625H9.6625V20.125H13.15V13.9625C13.15 13 13.925 12.2125 14.8875 12.2125C15.3516 12.2125 15.7967 12.3969 16.1249 12.7251C16.4531 13.0533 16.6375 13.4984 16.6375 13.9625V20.125H20.125ZM5.6 7.7C6.15695 7.7 6.6911 7.47875 7.08492 7.08492C7.47875 6.6911 7.7 6.15695 7.7 5.6C7.7 4.4375 6.7625 3.4875 5.6 3.4875C5.03973 3.4875 4.50241 3.71007 4.10624 4.10624C3.71007 4.50241 3.4875 5.03973 3.4875 5.6C3.4875 6.7625 4.4375 7.7 5.6 7.7ZM7.3375 20.125V9.6625H3.875V20.125H7.3375Z" fill="currentColor"/>
        </symbol>
		<symbol id="inst" width="100%" height="100%" viewBox="0 0 22 22">
            <path d="M6.38 0H15.62C19.14 0 22 2.86 22 6.38V15.62C22 17.3121 21.3278 18.9349 20.1313 20.1313C18.9349 21.3278 17.3121 22 15.62 22H6.38C2.86 22 0 19.14 0 15.62V6.38C0 4.68792 0.672177 3.06514 1.86866 1.86866C3.06514 0.672177 4.68792 0 6.38 0ZM6.16 2.2C5.10974 2.2 4.1025 2.61721 3.35986 3.35986C2.61721 4.1025 2.2 5.10974 2.2 6.16V15.84C2.2 18.029 3.971 19.8 6.16 19.8H15.84C16.8903 19.8 17.8975 19.3828 18.6401 18.6401C19.3828 17.8975 19.8 16.8903 19.8 15.84V6.16C19.8 3.971 18.029 2.2 15.84 2.2H6.16ZM16.775 3.85C17.1397 3.85 17.4894 3.99487 17.7473 4.25273C18.0051 4.51059 18.15 4.86033 18.15 5.225C18.15 5.58967 18.0051 5.93941 17.7473 6.19727C17.4894 6.45513 17.1397 6.6 16.775 6.6C16.4103 6.6 16.0606 6.45513 15.8027 6.19727C15.5449 5.93941 15.4 5.58967 15.4 5.225C15.4 4.86033 15.5449 4.51059 15.8027 4.25273C16.0606 3.99487 16.4103 3.85 16.775 3.85ZM11 5.5C12.4587 5.5 13.8576 6.07946 14.8891 7.11091C15.9205 8.14236 16.5 9.54131 16.5 11C16.5 12.4587 15.9205 13.8576 14.8891 14.8891C13.8576 15.9205 12.4587 16.5 11 16.5C9.54131 16.5 8.14236 15.9205 7.11091 14.8891C6.07946 13.8576 5.5 12.4587 5.5 11C5.5 9.54131 6.07946 8.14236 7.11091 7.11091C8.14236 6.07946 9.54131 5.5 11 5.5ZM11 7.7C10.1248 7.7 9.28542 8.04768 8.66655 8.66655C8.04768 9.28542 7.7 10.1248 7.7 11C7.7 11.8752 8.04768 12.7146 8.66655 13.3335C9.28542 13.9523 10.1248 14.3 11 14.3C11.8752 14.3 12.7146 13.9523 13.3335 13.3335C13.9523 12.7146 14.3 11.8752 14.3 11C14.3 10.1248 13.9523 9.28542 13.3335 8.66655C12.7146 8.04768 11.8752 7.7 11 7.7Z" fill="currentColor"/>
        </symbol>
		<symbol id="fb" width="100%" height="100%" viewBox="0 0 22 22">
            <path d="M22 11.0276C22 4.94035 17.072 0 11 0C4.928 0 0 4.94035 0 11.0276C0 16.3649 3.784 20.809 8.8 21.8346V14.3358H6.6V11.0276H8.8V8.27068C8.8 6.14236 10.527 4.41103 12.65 4.41103H15.4V7.7193H13.2C12.595 7.7193 12.1 8.21554 12.1 8.82205V11.0276H15.4V14.3358H12.1V22C17.655 21.4486 22 16.7509 22 11.0276Z" fill="currentColor"/>
        </symbol>
		<symbol id="tel" width="100%" height="100%" viewBox="0 0 24 24">
            <path d="M5 4H9L11 9L8.5 10.5C9.57096 12.6715 11.3285 14.429 13.5 15.5L15 13L20 15V19C20 19.5304 19.7893 20.0391 19.4142 20.4142C19.0391 20.7893 18.5304 21 18 21C14.0993 20.763 10.4202 19.1065 7.65683 16.3432C4.8935 13.5798 3.23705 9.90074 3 6C3 5.46957 3.21071 4.96086 3.58579 4.58579C3.96086 4.21071 4.46957 4 5 4" stroke="currentColor" fill="rgba(0, 0, 0, 0)" stroke-width="2" stroke-linecap="round" stroke-linejoin="round"/>
			<path d="M15 7C15.5304 7 16.0391 7.21071 16.4142 7.58579C16.7893 7.96086 17 8.46957 17 9" fill="rgba(0, 0, 0, 0)" stroke="currentColor" stroke-width="2" stroke-linecap="round" stroke-linejoin="round"/>
			<path d="M15 3C16.5913 3 18.1174 3.63214 19.2426 4.75736C20.3679 5.88258 21 7.4087 21 9" fill="rgba(0, 0, 0, 0)" stroke="currentColor" stroke-width="2" stroke-linecap="round" stroke-linejoin="round"/>
        </symbol>
		<symbol id="square" width="100%" height="100%" viewBox="0 0 92 92">
            <path d="M84.3334 46H7.66669" stroke="currentColor" stroke-width="5" stroke-linecap="round" stroke-linejoin="round"/>
			<path d="M15.3333 53.6666V23C15.3333 20.9667 16.141 19.0166 17.5788 17.5788C19.0166 16.141 20.9667 15.3333 23 15.3333H69C71.0333 15.3333 72.9834 16.141 74.4211 17.5788C75.8589 19.0166 76.6666 20.9667 76.6666 23V53.6666" fill="rgba(0, 0, 0, 0)" stroke="currentColor" stroke-width="5" stroke-linecap="round" stroke-linejoin="round"/>
			<path d="M69 76.6667C71.0333 76.6667 72.9834 75.8589 74.4212 74.4212C75.8589 72.9834 76.6667 71.0333 76.6667 69" stroke="currentColor" stroke-width="5" stroke-linecap="round" stroke-linejoin="round"/>
			<path d="M15.3333 69C15.3333 71.0333 16.141 72.9834 17.5788 74.4212C19.0166 75.8589 20.9667 76.6667 23 76.6667" stroke="currentColor" stroke-width="5" stroke-linecap="round" stroke-linejoin="round"/>
			<path d="M53.6666 76.6667H38.3333" stroke="currentColor" stroke-width="5" stroke-linecap="round" stroke-linejoin="round"/>
        </symbol>
		<symbol id="world" width="100%" height="100%" viewBox="0 0 92 92">
            <path d="M46 80.5C65.0538 80.5 80.5 65.0538 80.5 46C80.5 26.9462 65.0538 11.5 46 11.5C26.9462 11.5 11.5 26.9462 11.5 46C11.5 65.0538 26.9462 80.5 46 80.5Z" stroke="currentColor" fill="rgba(0, 0, 0, 0)" stroke-width="5" stroke-linecap="round" stroke-linejoin="round"/>
			<path d="M44.0833 11.5C38.6926 15.493 34.3125 20.6937 31.2944 26.685C28.2764 32.6763 26.7043 39.2915 26.7043 46C26.7043 52.7085 28.2764 59.3237 31.2944 65.315C34.3125 71.3063 38.6926 76.507 44.0833 80.5" fill="rgba(0, 0, 0, 0)" stroke="currentColor" stroke-width="5" stroke-linecap="round" stroke-linejoin="round"/>
			<path d="M47.9167 11.5C53.3074 15.493 57.6875 20.6937 60.7056 26.685C63.7236 32.6763 65.2957 39.2915 65.2957 46C65.2957 52.7085 63.7236 59.3237 60.7056 65.315C57.6875 71.3063 53.3074 76.507 47.9167 80.5" fill="rgba(0, 0, 0, 0)" stroke="currentColor" stroke-width="5" stroke-linecap="round" stroke-linejoin="round"/>
			<path d="M46 11.5V80.5" stroke="currentColor" stroke-width="5" stroke-linecap="round" stroke-linejoin="round"/>
        </symbol>
		<symbol id="case" width="100%" height="100%" viewBox="0 0 92 92">
            <path d="M80.5 50.8125C69.8461 55.1251 58.2004 57.5 46 57.5C33.7997 57.5 22.154 55.1251 11.5 50.8125M61.3333 23V15.3334C61.3333 11.0992 57.9008 7.66669 53.6667 7.66669H38.3333C34.0992 7.66669 30.6667 11.0992 30.6667 15.3334V23M46 46H46.0383M19.1667 76.6667H72.8333C77.0675 76.6667 80.5 73.2342 80.5 69V30.6667C80.5 26.4325 77.0675 23 72.8333 23H19.1667C14.9325 23 11.5 26.4325 11.5 30.6667V69C11.5 73.2342 14.9325 76.6667 19.1667 76.6667Z" fill="rgba(0, 0, 0, 0)" stroke="currentColor" stroke-width="5" stroke-linecap="round" stroke-linejoin="round"/>
        </symbol>
		<symbol id="conference" width="100%" height="100%" viewBox="0 0 74 74">
            <path d="M70.3473 58.1809C70.8801 57.4101 71.1932 56.4764 71.1932 55.4705V51.1935C71.1932 48.5586 69.0495 46.4149 66.4146 46.4149H64.765C61.9133 46.4149 59.5931 48.735 59.5931 51.5868V55.0771C59.5931 56.2064 59.9579 57.2517 60.5746 58.1031C59.6855 58.5858 58.9098 59.2508 58.2948 60.0462C57.7115 59.2919 56.9826 58.6562 56.1504 58.1807C56.6833 57.4099 56.9963 56.4763 56.9963 55.4703V51.1934C56.9963 48.5584 54.8526 46.4147 52.2177 46.4147H50.5686C49.9747 46.4147 49.4044 46.5166 48.8728 46.7018V40.8243H52.6435C53.4763 40.8243 54.1517 40.149 54.1517 39.3161V31.7749C54.1517 30.9419 53.4763 30.2667 52.6435 30.2667H50.5319V23.7183C50.5319 19.1846 47.0653 15.8827 41.9054 15.2649C42.6439 14.1074 43.066 12.6657 43.066 11.049V8.40967C43.066 4.28041 40.3226 1.28326 36.5428 1.28326H35.5625C31.7827 1.28326 29.0394 4.28041 29.0394 8.40967V11.0491C29.0394 12.6658 29.4614 14.1075 30.1999 15.2651C25.0402 15.8827 21.5735 19.1848 21.5735 23.7184V30.2668H19.4619C18.6289 30.2668 17.9537 30.9421 17.9537 31.775V39.3162C17.9537 40.1493 18.6291 40.8244 19.4619 40.8244H23.2325V46.4149H22.1751C19.3234 46.4149 17.0032 48.735 17.0032 51.5868V55.0771C17.0032 56.2064 17.368 57.2517 17.9847 58.1031C17.0956 58.5858 16.3199 59.2508 15.7049 60.0462C15.1216 59.2919 14.3927 58.6562 13.5605 58.1807C14.0934 57.4099 14.4064 56.4763 14.4064 55.4703V51.1934C14.4064 48.5584 12.2628 46.4147 9.6278 46.4147H7.97856C5.12681 46.4147 2.80665 48.7349 2.80665 51.5866V55.0769C2.80665 56.2063 3.17145 57.2515 3.78816 58.103C1.53391 59.3272 0 61.7158 0 64.4564V71.2085C0 72.0414 0.675395 72.7167 1.50818 72.7167H15.7049H29.9016H44.0984H58.2951H72.4918C73.3246 72.7167 74 72.0414 74 71.2085V64.4564C74 61.7718 72.5268 59.426 70.3473 58.1809ZM5.82302 51.5869C5.82302 50.3984 6.78993 49.4315 7.97841 49.4315H9.62795C10.5993 49.4315 11.3901 50.222 11.3901 51.1937V55.4706C11.3901 56.442 10.5996 57.2326 9.62795 57.2326H7.97856C6.79008 57.2326 5.82316 56.2657 5.82316 55.0772V51.5869H5.82302ZM14.1969 69.7003H3.01651V64.4564C3.01651 62.1364 4.90394 60.249 7.22396 60.249H9.98942C12.3094 60.249 14.1969 62.1364 14.1969 64.4564V69.7003ZM50.5686 49.4315H52.2181C53.1895 49.4315 53.9803 50.222 53.9803 51.1937V55.4706C53.9803 56.442 53.1898 57.2326 52.2181 57.2326H50.5686C49.3801 57.2326 48.4132 56.2657 48.4132 55.0772V51.5869C48.4132 50.3984 49.3801 49.4315 50.5686 49.4315ZM32.0559 8.40967C32.0559 6.36383 33.1401 4.29963 35.5625 4.29963H36.5428C38.9652 4.29963 40.0495 6.36383 40.0495 8.40967V11.0491C40.0495 13.0949 38.9652 15.1591 36.5428 15.1591H35.5625C33.1401 15.1591 32.0559 13.0949 32.0559 11.0491V8.40967ZM38.1211 18.1756L36.0527 21.425L33.9844 18.1756H38.1211ZM24.5901 23.7184C24.5901 20.4175 27.3517 18.6897 30.4724 18.2757L34.7804 25.0436C35.0572 25.4787 35.5371 25.742 36.0527 25.742C36.5684 25.742 37.0483 25.4787 37.3251 25.0436L41.6331 18.2757C44.7538 18.6897 47.5154 20.4173 47.5154 23.7184V30.2668H44.8759V26.3956C44.8759 25.5626 44.2006 24.8874 43.3678 24.8874C42.535 24.8874 41.8596 25.5626 41.8596 26.3956V30.2668H30.2461V26.3956C30.2461 25.5626 29.5707 24.8874 28.7379 24.8874C27.9051 24.8874 27.2297 25.5626 27.2297 26.3956V30.2668H24.5903V23.7184H24.5901ZM20.9702 37.808V33.2833H51.1352V37.808H20.9702ZM20.0197 51.5869C20.0197 50.3984 20.9867 49.4315 22.1751 49.4315H23.8247C24.7961 49.4315 25.5868 50.222 25.5868 51.1937V55.4706C25.5868 56.442 24.7964 57.2326 23.8247 57.2326H22.1751C20.9867 57.2326 20.0197 56.2657 20.0197 55.0772V51.5869ZM28.3936 69.7003H17.2134V64.4564H17.2132C17.2132 62.1364 19.1007 60.249 21.4207 60.249H24.1861C26.5062 60.249 28.3936 62.1364 28.3936 64.4564V69.7003ZM42.5902 69.7003H31.41V64.4564H31.4098C31.4098 62.1364 33.2973 60.249 35.6173 60.249H38.3827C40.7027 60.249 42.5902 62.1364 42.5902 64.4564V69.7003ZM34.2165 55.0772V51.5869C34.2165 50.3984 35.1834 49.4315 36.3719 49.4315H38.0214C38.9928 49.4315 39.7835 50.222 39.7835 51.1937V55.4706C39.7835 56.442 38.9931 57.2326 38.0214 57.2326H36.3719C35.1834 57.2325 34.2165 56.2655 34.2165 55.0772ZM44.0984 60.0462C43.515 59.2919 42.7862 58.6562 41.954 58.1807C42.4868 57.4101 42.7999 56.4763 42.7999 55.4703V51.1934C42.7999 48.5584 40.6562 46.4147 38.0213 46.4147H36.3717C33.52 46.4147 31.1998 48.7349 31.1998 51.5866V55.0769C31.1998 56.2063 31.5646 57.2515 32.1813 58.103C31.2922 58.5857 30.5165 59.2507 29.9015 60.0461C29.3182 59.2917 28.5893 58.6561 27.7571 58.1806C28.29 57.4098 28.603 56.4761 28.603 55.4702V51.1932C28.603 49.443 27.6565 47.9102 26.2489 47.0778V40.8241H45.8563V49.4591C45.5619 50.1087 45.3965 50.8283 45.3965 51.5865V55.0768C45.3965 56.2061 45.7613 57.2514 46.3781 58.1028C45.489 58.586 44.7133 59.251 44.0984 60.0462ZM56.7869 69.7003H45.6067V64.4564H45.6065C45.6065 62.1364 47.494 60.249 49.814 60.249H52.5795C54.8995 60.249 56.7869 62.1364 56.7869 64.4564V69.7003ZM62.6098 51.5869C62.6098 50.3984 63.5767 49.4315 64.7652 49.4315H66.4147C67.3861 49.4315 68.1768 50.222 68.1768 51.1937V55.4706C68.1768 56.442 67.3864 57.2326 66.4147 57.2326H64.7652C63.5767 57.2326 62.6098 56.2657 62.6098 55.0772V51.5869ZM70.9836 69.7003H70.9835H59.8033V64.4564C59.8033 62.1364 61.6907 60.249 64.0107 60.249H66.7762C69.0962 60.249 70.9836 62.1364 70.9836 64.4564V69.7003Z" fill="currentColor"/>
			<path d="M36.0532 29.5134C36.8861 29.5134 37.5614 28.8381 37.5614 28.0052C37.5614 27.1722 36.8861 26.497 36.0532 26.497C35.2202 26.497 34.545 27.1722 34.545 28.0052C34.545 28.8381 35.2202 29.5134 36.0532 29.5134Z" fill="currentColor"/>
        </symbol>
	</defs>
</svg>
