<?xml version="1.0"?>
<svg xmlns="http://www.w3.org/2000/svg" xmlns:xlink="http://www.w3.org/1999/xlink" version="1.1" xml:space="preserve">
	<defs>
		<symbol id="email" width="100%" height="100%" viewBox="0 0 30 30">
			<path fill-rule="evenodd" clip-rule="evenodd" d="M3.7665 11.4391C3.75 12.1128 3.75 12.8776 3.75 13.75V16.25C3.75 19.7855 3.75 21.5533 4.84835 22.6517C5.9467 23.75 7.71447 23.75 11.25 23.75H18.75C22.2855 23.75 24.0533 23.75 25.1517 22.6517C26.25 21.5533 26.25 19.7855 26.25 16.25V13.75C26.25 12.8776 26.25 12.1128 26.2335 11.4391L16.2141 17.0054C15.4591 17.4249 14.5409 17.4249 13.7859 17.0054L3.7665 11.4391ZM4.05371 8.78714C4.15731 8.81315 4.25925 8.85297 4.35705 8.9073L15 14.8201L25.6429 8.9073C25.7408 8.85297 25.8427 8.81315 25.9463 8.78714C25.7838 8.19524 25.5344 7.73114 25.1517 7.34835C24.0533 6.25 22.2855 6.25 18.75 6.25H11.25C7.71447 6.25 5.9467 6.25 4.84835 7.34835C4.46556 7.73114 4.21618 8.19524 4.05371 8.78714Z" fill="currentColor"/>
		</symbol>
		<symbol id="phone" width="100%" height="100%" viewBox="0 0 30 30">
			<path d="M8.34953 4.15035L9.11612 3.38376C9.60427 2.89561 10.3957 2.89561 10.8839 3.38376L14.1161 6.61599C14.6043 7.10415 14.6043 7.89561 14.1161 8.38376L11.8756 10.6243C11.502 10.9979 11.4094 11.5686 11.6457 12.0412C13.0116 14.7731 15.2268 16.9883 17.9587 18.3542C18.4312 18.5905 19.002 18.4979 19.3756 18.1243L21.6161 15.8838C22.1043 15.3956 22.8957 15.3956 23.3839 15.8838L26.6161 19.116C27.1043 19.6042 27.1043 20.3956 26.6161 20.8838L25.8495 21.6504C23.2103 24.2895 19.0321 24.5865 16.0462 22.347L14.5357 21.2142C12.3563 19.5796 10.4203 17.6436 8.78571 15.4642L7.65283 13.9537C5.4134 10.9677 5.71034 6.78954 8.34953 4.15035Z" fill="currentColor"/>
		</symbol>
		<symbol id="menu" width="100%" height="100%" viewBox="0 0 20 18">
			<path fill-rule="evenodd" clip-rule="evenodd" d="M0.199951 2.0001C0.199951 1.2269 0.826752 0.600098 1.59995 0.600098H18.4C19.1732 0.600098 19.8 1.2269 19.8 2.0001C19.8 2.7733 19.1732 3.4001 18.4 3.4001H1.59995C0.826752 3.4001 0.199951 2.7733 0.199951 2.0001Z" fill="currentColor" />
			<path fill-rule="evenodd" clip-rule="evenodd" d="M0.199951 9.0001C0.199951 8.2269 0.826752 7.6001 1.59995 7.6001H18.4C19.1732 7.6001 19.8 8.2269 19.8 9.0001C19.8 9.7733 19.1732 10.4001 18.4 10.4001H1.59995C0.826752 10.4001 0.199951 9.7733 0.199951 9.0001Z" fill="currentColor" />
			<path fill-rule="evenodd" clip-rule="evenodd" d="M0.199951 16.0001C0.199951 15.2269 0.826752 14.6001 1.59995 14.6001H18.4C19.1732 14.6001 19.8 15.2269 19.8 16.0001C19.8 16.7733 19.1732 17.4001 18.4 17.4001H1.59995C0.826752 17.4001 0.199951 16.7733 0.199951 16.0001Z" fill="currentColor" />
		</symbol>
		<symbol id="arrow-right" width="100%" height="100%" viewBox="0 0 15 10">
			<path d="M13 5L13.7071 4.29289L14.4142 5L13.7071 5.70711L13 5ZM1 6C0.447715 6 0 5.55228 0 5C0 4.44772 0.447715 4 1 4V6ZM9.70711 0.292893L13.7071 4.29289L12.2929 5.70711L8.29289 1.70711L9.70711 0.292893ZM13.7071 5.70711L9.70711 9.70711L8.29289 8.29289L12.2929 4.29289L13.7071 5.70711ZM13 6H1V4H13V6Z" fill="currentColor" />
		</symbol>
		<symbol id="arrow-left" width="100%" height="100%" viewBox="0 0 15 10">
			<path d="M2 5L1.29289 4.29289L0.585786 5L1.29289 5.70711L2 5ZM14 6C14.5523 6 15 5.55228 15 5C15 4.44772 14.5523 4 14 4V6ZM5.29289 0.292893L1.29289 4.29289L2.70711 5.70711L6.70711 1.70711L5.29289 0.292893ZM1.29289 5.70711L5.29289 9.70711L6.70711 8.29289L2.70711 4.29289L1.29289 5.70711ZM2 6H14V4H2V6Z" fill="currentColor" />
		</symbol>
		<symbol id="arrow-bottom" width="100%" height="100%" viewBox="0 0 10 7">
			<path d="M4.80794 6.60791L1.09346 2.15053C0.659239 1.62947 1.02976 0.838379 1.70803 0.838379L8.29197 0.838379C8.97024 0.838379 9.34076 1.62946 8.90654 2.15053L5.19206 6.60791C5.09211 6.72785 4.90789 6.72785 4.80794 6.60791Z" fill="currentColor"/>
		</symbol>
		<symbol id="arrow-move" width="100%" height="100%" viewBox="0 0 20 20">
			<path d="M14.1667 5.83325L5.83334 14.1666" stroke="currentColor" stroke-width="2" stroke-linecap="round" stroke-linejoin="round"/>
			<path d="M6.66666 5.83325H14.1667V13.3333" fill="rgba(0, 0, 0, 0)" stroke="currentColor" stroke-width="2" stroke-linecap="round" stroke-linejoin="round"/>
		</symbol>
		<symbol id="gal-ochka" width="100%" height="100%" viewBox="0 0 12 10">
			<path d="M6.23497 8.79946C5.9649 9.16602 5.54433 9.3913 5.0896 9.41369C4.63487 9.43632 4.19445 9.25304 3.88975 8.91464L1.15929 5.88456C0.725328 5.40328 0.763876 4.6614 1.24515 4.22744C1.72689 3.79348 2.46831 3.83226 2.90227 4.31377L4.83407 6.45771C4.8627 6.48956 4.90425 6.50664 4.94695 6.50456C4.98988 6.50249 5.02912 6.48102 5.05475 6.44686L9.02546 1.0614C9.40979 0.539728 10.1443 0.428699 10.6662 0.813259C11.1876 1.19782 11.2984 1.93232 10.9139 2.45376L6.23497 8.79946Z" fill="currentColor" />
		</symbol>
		<symbol id="to-right" width="100%" height="100%" viewBox="0 0 8 14">
			<path d="M5.63663 7.00019L1.15148 2.51504C0.7935 2.15706 0.7935 1.57666 1.15148 1.21868C1.50946 0.8607 2.08986 0.8607 2.44784 1.21868L7.58118 6.35201C7.93916 6.70999 7.93916 7.29039 7.58118 7.64838L2.44784 12.7817C2.08986 13.1397 1.50946 13.1397 1.15148 12.7817C0.7935 12.4237 0.7935 11.8433 1.15148 11.4853L5.63663 7.00019Z" fill="currentColor" />
		</symbol>
		<symbol id="to-left" width="100%" height="100%" viewBox="0 0 8 14">
			<path d="M2.36337 7.00019L6.84852 2.51504C7.2065 2.15706 7.2065 1.57666 6.84852 1.21868C6.49054 0.8607 5.91014 0.8607 5.55216 1.21868L0.418823 6.35201C0.0608425 6.70999 0.0608425 7.29039 0.418823 7.64838L5.55216 12.7817C5.91014 13.1397 6.49054 13.1397 6.84852 12.7817C7.2065 12.4237 7.2065 11.8433 6.84852 11.4853L2.36337 7.00019Z" fill="currentColor" />
		</symbol>
		<symbol id="play" width="100%" height="100%" viewBox="0 0 62 62">
			<path d="M23.9343 14.4273C21.2692 12.7873 17.8379 14.7047 17.8379 17.834V44.1661C17.8379 47.2954 21.2692 49.2128 23.9343 47.5727L45.3292 34.4067C47.8673 32.8447 47.8673 29.1553 45.3292 27.5934L23.9343 14.4273Z" fill="currentColor"/>
		</symbol>
		<symbol id="cross" width="100%" height="100%" viewBox="0 0 16 16">
			<path d="M1 15L15 1M1 1L15 15" fill="none" stroke="currentColor" stroke-width="2" stroke-linecap="round" stroke-linejoin="round" />
		</symbol>
		<symbol id="burger" width="100%" height="100%" viewBox="0 0 48 48">
            <path d="M41,14H7a2,2,0,0,1,0-4H41A2,2,0,0,1,41,14Z" fill="currentColor"/>
            <path d="M41,26H7a2,2,0,0,1,0-4H41A2,2,0,0,1,41,26Z" fill="currentColor"/>
            <path d="M41,38H7a2,2,0,0,1,0-4H41A2,2,0,0,1,41,38Z" fill="currentColor"/>
        </symbol>
		<symbol id="close" width="100%" height="100%" viewBox="0 0 16 16">
            <path d="M1 15L15 1M1 1L15 15" stroke="currentColor" stroke-width="2" stroke-linecap="round" stroke-linejoin="round"/>
        </symbol>
		<symbol id="tg" width="100%" height="100%" viewBox="0 0 24 20">
            <path fill-rule="evenodd" clip-rule="evenodd" d="M2.15831 8.68342C8.33105 5.98707 12.4403 4.19542 14.5038 3.32621C20.3767 0.86047 21.6113 0.434731 22.4049 0.416992C22.5813 0.416992 22.9693 0.452471 23.2338 0.66534C23.4455 0.842731 23.4984 1.07334 23.5336 1.25073C23.5689 1.42812 23.6042 1.80064 23.5689 2.08447C23.2515 5.4549 21.8758 13.6326 21.1704 17.3933C20.8705 18.9898 20.2885 19.522 19.7242 19.5752C18.4896 19.6817 17.5549 18.7592 16.3733 17.9787C14.5038 16.7547 13.4633 15.9919 11.6467 14.7857C9.54797 13.402 10.906 12.6392 12.1052 11.3975C12.4227 11.0782 17.8371 6.11125 17.9429 5.66777C17.9605 5.61455 17.9605 5.40168 17.8371 5.29525C17.7136 5.18881 17.5373 5.22429 17.3962 5.25977C17.2022 5.29525 14.2393 7.28203 8.47214 11.2024C7.6256 11.7878 6.86723 12.0716 6.17941 12.0538C5.42104 12.0361 3.97486 11.6281 2.8814 11.2733C1.55867 10.8476 0.500483 10.617 0.588665 9.87194C0.641575 9.48168 1.17067 9.09142 2.15831 8.68342Z" fill="currentColor"/>
        </symbol>
		<symbol id="in" width="100%" height="100%" viewBox="0 0 24 24">
            <path d="M20.75 0.75C21.413 0.75 22.0489 1.01339 22.5178 1.48223C22.9866 1.95107 23.25 2.58696 23.25 3.25V20.75C23.25 21.413 22.9866 22.0489 22.5178 22.5178C22.0489 22.9866 21.413 23.25 20.75 23.25H3.25C2.58696 23.25 1.95107 22.9866 1.48223 22.5178C1.01339 22.0489 0.75 21.413 0.75 20.75V3.25C0.75 2.58696 1.01339 1.95107 1.48223 1.48223C1.95107 1.01339 2.58696 0.75 3.25 0.75H20.75ZM20.125 20.125V13.5C20.125 12.4192 19.6957 11.3828 18.9315 10.6185C18.1672 9.85433 17.1308 9.425 16.05 9.425C14.9875 9.425 13.75 10.075 13.15 11.05V9.6625H9.6625V20.125H13.15V13.9625C13.15 13 13.925 12.2125 14.8875 12.2125C15.3516 12.2125 15.7967 12.3969 16.1249 12.7251C16.4531 13.0533 16.6375 13.4984 16.6375 13.9625V20.125H20.125ZM5.6 7.7C6.15695 7.7 6.6911 7.47875 7.08492 7.08492C7.47875 6.6911 7.7 6.15695 7.7 5.6C7.7 4.4375 6.7625 3.4875 5.6 3.4875C5.03973 3.4875 4.50241 3.71007 4.10624 4.10624C3.71007 4.50241 3.4875 5.03973 3.4875 5.6C3.4875 6.7625 4.4375 7.7 5.6 7.7ZM7.3375 20.125V9.6625H3.875V20.125H7.3375Z" fill="currentColor"/>
        </symbol>
		<symbol id="inst" width="100%" height="100%" viewBox="0 0 22 22">
            <path d="M6.38 0H15.62C19.14 0 22 2.86 22 6.38V15.62C22 17.3121 21.3278 18.9349 20.1313 20.1313C18.9349 21.3278 17.3121 22 15.62 22H6.38C2.86 22 0 19.14 0 15.62V6.38C0 4.68792 0.672177 3.06514 1.86866 1.86866C3.06514 0.672177 4.68792 0 6.38 0ZM6.16 2.2C5.10974 2.2 4.1025 2.61721 3.35986 3.35986C2.61721 4.1025 2.2 5.10974 2.2 6.16V15.84C2.2 18.029 3.971 19.8 6.16 19.8H15.84C16.8903 19.8 17.8975 19.3828 18.6401 18.6401C19.3828 17.8975 19.8 16.8903 19.8 15.84V6.16C19.8 3.971 18.029 2.2 15.84 2.2H6.16ZM16.775 3.85C17.1397 3.85 17.4894 3.99487 17.7473 4.25273C18.0051 4.51059 18.15 4.86033 18.15 5.225C18.15 5.58967 18.0051 5.93941 17.7473 6.19727C17.4894 6.45513 17.1397 6.6 16.775 6.6C16.4103 6.6 16.0606 6.45513 15.8027 6.19727C15.5449 5.93941 15.4 5.58967 15.4 5.225C15.4 4.86033 15.5449 4.51059 15.8027 4.25273C16.0606 3.99487 16.4103 3.85 16.775 3.85ZM11 5.5C12.4587 5.5 13.8576 6.07946 14.8891 7.11091C15.9205 8.14236 16.5 9.54131 16.5 11C16.5 12.4587 15.9205 13.8576 14.8891 14.8891C13.8576 15.9205 12.4587 16.5 11 16.5C9.54131 16.5 8.14236 15.9205 7.11091 14.8891C6.07946 13.8576 5.5 12.4587 5.5 11C5.5 9.54131 6.07946 8.14236 7.11091 7.11091C8.14236 6.07946 9.54131 5.5 11 5.5ZM11 7.7C10.1248 7.7 9.28542 8.04768 8.66655 8.66655C8.04768 9.28542 7.7 10.1248 7.7 11C7.7 11.8752 8.04768 12.7146 8.66655 13.3335C9.28542 13.9523 10.1248 14.3 11 14.3C11.8752 14.3 12.7146 13.9523 13.3335 13.3335C13.9523 12.7146 14.3 11.8752 14.3 11C14.3 10.1248 13.9523 9.28542 13.3335 8.66655C12.7146 8.04768 11.8752 7.7 11 7.7Z" fill="currentColor"/>
        </symbol>
		<symbol id="fb" width="100%" height="100%" viewBox="0 0 22 22">
            <path d="M22 11.0276C22 4.94035 17.072 0 11 0C4.928 0 0 4.94035 0 11.0276C0 16.3649 3.784 20.809 8.8 21.8346V14.3358H6.6V11.0276H8.8V8.27068C8.8 6.14236 10.527 4.41103 12.65 4.41103H15.4V7.7193H13.2C12.595 7.7193 12.1 8.21554 12.1 8.82205V11.0276H15.4V14.3358H12.1V22C17.655 21.4486 22 16.7509 22 11.0276Z" fill="currentColor"/>
        </symbol>
		<symbol id="tel" width="100%" height="100%" viewBox="0 0 24 24">
            <path d="M5 4H9L11 9L8.5 10.5C9.57096 12.6715 11.3285 14.429 13.5 15.5L15 13L20 15V19C20 19.5304 19.7893 20.0391 19.4142 20.4142C19.0391 20.7893 18.5304 21 18 21C14.0993 20.763 10.4202 19.1065 7.65683 16.3432C4.8935 13.5798 3.23705 9.90074 3 6C3 5.46957 3.21071 4.96086 3.58579 4.58579C3.96086 4.21071 4.46957 4 5 4" stroke="currentColor" fill="rgba(0, 0, 0, 0)" stroke-width="2" stroke-linecap="round" stroke-linejoin="round"/>
			<path d="M15 7C15.5304 7 16.0391 7.21071 16.4142 7.58579C16.7893 7.96086 17 8.46957 17 9" fill="rgba(0, 0, 0, 0)" stroke="currentColor" stroke-width="2" stroke-linecap="round" stroke-linejoin="round"/>
			<path d="M15 3C16.5913 3 18.1174 3.63214 19.2426 4.75736C20.3679 5.88258 21 7.4087 21 9" fill="rgba(0, 0, 0, 0)" stroke="currentColor" stroke-width="2" stroke-linecap="round" stroke-linejoin="round"/>
        </symbol>
		<symbol id="square" width="100%" height="100%" viewBox="0 0 92 92">
            <path d="M84.3334 46H7.66669" stroke="currentColor" stroke-width="5" stroke-linecap="round" stroke-linejoin="round"/>
			<path d="M15.3333 53.6666V23C15.3333 20.9667 16.141 19.0166 17.5788 17.5788C19.0166 16.141 20.9667 15.3333 23 15.3333H69C71.0333 15.3333 72.9834 16.141 74.4211 17.5788C75.8589 19.0166 76.6666 20.9667 76.6666 23V53.6666" fill="rgba(0, 0, 0, 0)" stroke="currentColor" stroke-width="5" stroke-linecap="round" stroke-linejoin="round"/>
			<path d="M69 76.6667C71.0333 76.6667 72.9834 75.8589 74.4212 74.4212C75.8589 72.9834 76.6667 71.0333 76.6667 69" stroke="currentColor" stroke-width="5" stroke-linecap="round" stroke-linejoin="round"/>
			<path d="M15.3333 69C15.3333 71.0333 16.141 72.9834 17.5788 74.4212C19.0166 75.8589 20.9667 76.6667 23 76.6667" stroke="currentColor" stroke-width="5" stroke-linecap="round" stroke-linejoin="round"/>
			<path d="M53.6666 76.6667H38.3333" stroke="currentColor" stroke-width="5" stroke-linecap="round" stroke-linejoin="round"/>
        </symbol>
		<symbol id="world" width="100%" height="100%" viewBox="0 0 92 92">
            <path d="M46 80.5C65.0538 80.5 80.5 65.0538 80.5 46C80.5 26.9462 65.0538 11.5 46 11.5C26.9462 11.5 11.5 26.9462 11.5 46C11.5 65.0538 26.9462 80.5 46 80.5Z" stroke="currentColor" fill="rgba(0, 0, 0, 0)" stroke-width="5" stroke-linecap="round" stroke-linejoin="round"/>
			<path d="M44.0833 11.5C38.6926 15.493 34.3125 20.6937 31.2944 26.685C28.2764 32.6763 26.7043 39.2915 26.7043 46C26.7043 52.7085 28.2764 59.3237 31.2944 65.315C34.3125 71.3063 38.6926 76.507 44.0833 80.5" fill="rgba(0, 0, 0, 0)" stroke="currentColor" stroke-width="5" stroke-linecap="round" stroke-linejoin="round"/>
			<path d="M47.9167 11.5C53.3074 15.493 57.6875 20.6937 60.7056 26.685C63.7236 32.6763 65.2957 39.2915 65.2957 46C65.2957 52.7085 63.7236 59.3237 60.7056 65.315C57.6875 71.3063 53.3074 76.507 47.9167 80.5" fill="rgba(0, 0, 0, 0)" stroke="currentColor" stroke-width="5" stroke-linecap="round" stroke-linejoin="round"/>
			<path d="M46 11.5V80.5" stroke="currentColor" stroke-width="5" stroke-linecap="round" stroke-linejoin="round"/>
        </symbol>
		<symbol id="world-fill" width="100%" height="100%" viewBox="0 0 18 18">
            <path fill-rule="evenodd" clip-rule="evenodd" d="M8.25 2.29144L8.25 5.96089C7.7947 5.91331 7.34974 5.82261 6.9264 5.6911C6.27264 5.488 5.68969 5.19361 5.20736 4.83186C4.89008 4.5939 4.62255 4.33156 4.407 4.05381C5.43958 3.09457 6.77297 2.45472 8.25 2.29144ZM9.75 2.29144V5.96089C10.2053 5.91331 10.6503 5.82261 11.0736 5.6911C11.7274 5.488 12.3103 5.19361 12.7926 4.83186C13.1099 4.5939 13.3774 4.33156 13.593 4.05381C12.5604 3.09457 11.227 2.45472 9.75 2.29144ZM14.5848 5.20801C14.3232 5.50769 14.0238 5.78351 13.6926 6.03186C13.0607 6.50583 12.3208 6.87438 11.5186 7.12357C10.95 7.3002 10.3549 7.41546 9.75 7.46763V8.24988L15.7088 8.24988C15.585 7.13064 15.1875 6.09388 14.5848 5.20801ZM15.7088 9.74988H9.75V10.5321C10.3549 10.5843 10.95 10.6996 11.5186 10.8762C12.3208 11.1254 13.0607 11.4939 13.6926 11.9679C14.0239 12.2163 14.3234 12.4923 14.5851 12.7921C15.1878 11.9061 15.5852 10.8692 15.7088 9.74988ZM13.5933 13.9464C13.3777 13.6685 13.1101 13.406 12.7926 13.1679C12.3103 12.8061 11.7274 12.5118 11.0736 12.3087C10.6503 12.1771 10.2053 12.0864 9.75 12.0389V15.709C11.2272 15.5458 12.5607 14.9058 13.5933 13.9464ZM8.25 15.709L8.25 12.0389C7.7947 12.0864 7.34974 12.1771 6.9264 12.3087C6.27264 12.5118 5.68969 12.8061 5.20736 13.1679C4.88992 13.406 4.62228 13.6685 4.40667 13.9464C5.4393 14.9058 6.77282 15.5458 8.25 15.709ZM3.41489 12.7921C3.67657 12.4923 3.97611 12.2163 4.30736 11.9679C4.93933 11.4939 5.67925 11.1254 6.48139 10.8762C7.04997 10.6996 7.64514 10.5843 8.25 10.5321V9.74988H2.29116C2.41483 10.8692 2.81221 11.9061 3.41489 12.7921ZM2.29124 8.24988L8.25 8.24988V7.46763C7.64514 7.41546 7.04997 7.3002 6.48139 7.12357C5.67925 6.87438 4.93933 6.50583 4.30736 6.03186C3.97623 5.78351 3.67679 5.50769 3.41517 5.20801C2.81247 6.09388 2.41502 7.13064 2.29124 8.24988Z" fill="currentColor"/>
        </symbol>
		<symbol id="case" width="100%" height="100%" viewBox="0 0 92 92">
            <path d="M80.5 50.8125C69.8461 55.1251 58.2004 57.5 46 57.5C33.7997 57.5 22.154 55.1251 11.5 50.8125M61.3333 23V15.3334C61.3333 11.0992 57.9008 7.66669 53.6667 7.66669H38.3333C34.0992 7.66669 30.6667 11.0992 30.6667 15.3334V23M46 46H46.0383M19.1667 76.6667H72.8333C77.0675 76.6667 80.5 73.2342 80.5 69V30.6667C80.5 26.4325 77.0675 23 72.8333 23H19.1667C14.9325 23 11.5 26.4325 11.5 30.6667V69C11.5 73.2342 14.9325 76.6667 19.1667 76.6667Z" fill="rgba(0, 0, 0, 0)" stroke="currentColor" stroke-width="5" stroke-linecap="round" stroke-linejoin="round"/>
        </symbol>
		<symbol id="pdf" width="100%" height="100%" viewBox="0 0 52 52">
            <path d="M38.9993 47.6667H12.9993C11.8501 47.6667 10.7479 47.2101 9.93522 46.3975C9.12256 45.5848 8.66602 44.4826 8.66602 43.3333V8.66666C8.66602 7.51739 9.12256 6.41519 9.93522 5.60253C10.7479 4.78987 11.8501 4.33333 12.9993 4.33333H28.166C28.1854 4.33079 28.2051 4.33079 28.2245 4.33333H28.2375C28.258 4.33972 28.279 4.34408 28.3004 4.34633C28.491 4.35933 28.6795 4.39616 28.8615 4.45683H28.9525C28.9925 4.48482 29.0302 4.51597 29.0652 4.54999C29.3012 4.65495 29.5163 4.80176 29.7 4.98333L42.7 17.9833C42.8816 18.167 43.0284 18.3821 43.1334 18.6182C43.1522 18.665 43.1688 18.7127 43.1832 18.7612L43.2048 18.8218C43.2655 19.0017 43.3002 19.1902 43.311 19.3808C43.3129 19.4024 43.318 19.4236 43.3262 19.4437V19.4567C43.3297 19.4709 43.3318 19.4854 43.3327 19.5V43.3333C43.3327 44.4826 42.8761 45.5848 42.0635 46.3975C41.2508 47.2101 40.1486 47.6667 38.9993 47.6667ZM31.2513 30.3333V41.1667H33.288V36.7467H36.4513V34.931H33.288V32.1555H36.8327V30.3333H31.2513ZM23.2347 30.3333V41.1667H25.8477C26.3889 41.1934 26.9292 41.0983 27.4287 40.8883C27.9282 40.6783 28.3742 40.3588 28.7337 39.9533C29.481 38.9998 29.8553 37.8067 29.7867 36.5972V34.8422C29.8371 33.6453 29.4522 32.4708 28.7034 31.5358C27.9992 30.7342 26.97 30.2922 25.9018 30.3333H23.2347ZM15.166 30.3333V41.1667H17.2027V37.3555H18.559C19.4647 37.4053 20.3487 37.0695 20.9943 36.4325C21.6094 35.7441 21.9286 34.8412 21.8827 33.9192C21.9229 32.975 21.6039 32.0506 20.99 31.3322C20.6901 30.9996 20.3203 30.7375 19.9071 30.5648C19.4939 30.3921 19.0476 30.3131 18.6002 30.3333H15.166ZM28.166 8.66666V19.5H38.9993L28.166 8.66666ZM25.8823 39.351H25.2713V32.1555H26.0123C26.2713 32.1402 26.5299 32.1901 26.7646 32.3007C26.9993 32.4112 27.2025 32.5788 27.3557 32.7882C27.6742 33.4447 27.8107 34.1748 27.75 34.9028V36.7857C27.7977 37.479 27.6482 38.1723 27.3167 38.7812C27.1418 38.9854 26.9198 39.1439 26.6699 39.2432C26.42 39.3425 26.1497 39.3795 25.8823 39.351ZM18.6002 35.5333H17.2005V32.1555H18.6197C18.794 32.1574 18.9649 32.2035 19.1165 32.2895C19.2681 32.3756 19.3954 32.4987 19.4864 32.6473C19.7204 33.0352 19.833 33.4815 19.8113 33.9343C19.8385 34.3557 19.7266 34.7744 19.4928 35.126C19.3866 35.2593 19.2504 35.3657 19.0953 35.4365C18.9402 35.5073 18.7705 35.5405 18.6002 35.5333Z" fill="currentColor"/>
        </symbol>
		<symbol id="chat" width="100%" height="100%" viewBox="0 0 18 15">
            <path d="M16.1373 12.9479C17.2653 12.1142 18.001 10.888 18.001 9.51479C18.001 7.01351 15.5487 5.00269 12.557 5.00269C9.56529 5.00269 7.16211 7.01351 7.16211 9.51479C7.16211 12.0161 9.56529 14.0269 12.557 14.0269C13.1946 14.0269 13.7831 13.9288 14.3226 13.7817C14.5188 13.7326 14.715 13.7817 14.764 13.8307L15.9901 14.5173C16.1373 14.6154 16.2844 14.5173 16.2354 14.3212L15.9411 13.2422C15.9411 13.095 16.0392 12.997 16.1373 12.9479ZM10.7424 8.77912C10.6335 8.80796 10.5194 8.81141 10.4089 8.78919C10.2985 8.76697 10.1946 8.71969 10.1053 8.65097C10.016 8.58226 9.94373 8.49396 9.89397 8.39288C9.84421 8.2918 9.81834 8.18064 9.81834 8.06797C9.81834 7.95531 9.84421 7.84415 9.89397 7.74307C9.94373 7.64199 10.016 7.55369 10.1053 7.48497C10.1946 7.41626 10.2985 7.36897 10.4089 7.34675C10.5194 7.32453 10.6335 7.32798 10.7424 7.35683C10.8993 7.39838 11.038 7.49066 11.137 7.61929C11.236 7.74791 11.2897 7.90566 11.2897 8.06797C11.2897 8.23028 11.236 8.38803 11.137 8.51666C11.038 8.64528 10.8993 8.73756 10.7424 8.77912ZM14.3717 8.77912C14.2628 8.80796 14.1487 8.81141 14.0382 8.78919C13.9278 8.76697 13.8239 8.71969 13.7346 8.65097C13.6453 8.58226 13.573 8.49396 13.5233 8.39288C13.4735 8.2918 13.4476 8.18064 13.4476 8.06797C13.4476 7.95531 13.4735 7.84415 13.5233 7.74307C13.573 7.64199 13.6453 7.55369 13.7346 7.48497C13.8239 7.41626 13.9278 7.36897 14.0382 7.34675C14.1487 7.32453 14.2628 7.32798 14.3717 7.35683C14.5286 7.39838 14.6673 7.49066 14.7663 7.61929C14.8653 7.74791 14.919 7.90566 14.919 8.06797C14.919 8.23028 14.8653 8.38803 14.7663 8.51666C14.6673 8.64528 14.5286 8.73756 14.3717 8.77912Z" fill="currentColor"/>
			<path d="M6.47389 0C2.89363 0 0 2.45223 0 5.44395C0 7.06242 0.833758 8.53376 2.20701 9.51465C2.35414 9.61274 2.45223 9.75987 2.40318 10.0051L2.05987 11.1822C2.01083 11.4274 2.20701 11.5255 2.35414 11.4764L3.82548 10.6427C3.97261 10.5446 4.16879 10.4955 4.36497 10.5446C5.64013 10.9369 6.71911 10.8389 6.86624 10.8389C5.68917 6.71911 9.75987 4.36497 12.8987 4.56115C12.4083 2.01083 9.71083 0 6.47389 0ZM4.31592 4.56115C4.18612 4.59239 4.05093 4.5938 3.92051 4.56525C3.79009 4.5367 3.66785 4.47894 3.56298 4.39632C3.45811 4.3137 3.37334 4.20837 3.31506 4.08825C3.25677 3.96814 3.22649 3.83637 3.22649 3.70287C3.22649 3.56936 3.25677 3.43759 3.31506 3.31748C3.37334 3.19736 3.45811 3.09203 3.56298 3.00941C3.66785 2.92679 3.79009 2.86903 3.92051 2.84048C4.05093 2.81193 4.18612 2.81334 4.31592 2.84459C4.50862 2.89098 4.68009 3.00086 4.80275 3.15655C4.9254 3.31223 4.9921 3.50467 4.9921 3.70287C4.9921 3.90106 4.9254 4.0935 4.80275 4.24918C4.68009 4.40487 4.50862 4.51476 4.31592 4.56115ZM8.68089 4.56115C8.55109 4.59239 8.4159 4.5938 8.28548 4.56525C8.15506 4.5367 8.03282 4.47894 7.92794 4.39632C7.82307 4.3137 7.73831 4.20837 7.68002 4.08825C7.62174 3.96814 7.59146 3.83637 7.59146 3.70287C7.59146 3.56936 7.62174 3.43759 7.68002 3.31748C7.73831 3.19736 7.82307 3.09203 7.92794 3.00941C8.03282 2.92679 8.15506 2.86903 8.28548 2.84048C8.4159 2.81193 8.55109 2.81334 8.68089 2.84459C8.87358 2.89098 9.04506 3.00086 9.16772 3.15655C9.29037 3.31223 9.35707 3.50467 9.35707 3.70287C9.35707 3.90106 9.29037 4.0935 9.16772 4.24918C9.04506 4.40487 8.87358 4.51476 8.68089 4.56115Z" fill="currentColor"/>
        </symbol>
		<symbol id="conference" width="100%" height="100%" viewBox="0 0 74 74">
            <path d="M70.3473 58.1809C70.8801 57.4101 71.1932 56.4764 71.1932 55.4705V51.1935C71.1932 48.5586 69.0495 46.4149 66.4146 46.4149H64.765C61.9133 46.4149 59.5931 48.735 59.5931 51.5868V55.0771C59.5931 56.2064 59.9579 57.2517 60.5746 58.1031C59.6855 58.5858 58.9098 59.2508 58.2948 60.0462C57.7115 59.2919 56.9826 58.6562 56.1504 58.1807C56.6833 57.4099 56.9963 56.4763 56.9963 55.4703V51.1934C56.9963 48.5584 54.8526 46.4147 52.2177 46.4147H50.5686C49.9747 46.4147 49.4044 46.5166 48.8728 46.7018V40.8243H52.6435C53.4763 40.8243 54.1517 40.149 54.1517 39.3161V31.7749C54.1517 30.9419 53.4763 30.2667 52.6435 30.2667H50.5319V23.7183C50.5319 19.1846 47.0653 15.8827 41.9054 15.2649C42.6439 14.1074 43.066 12.6657 43.066 11.049V8.40967C43.066 4.28041 40.3226 1.28326 36.5428 1.28326H35.5625C31.7827 1.28326 29.0394 4.28041 29.0394 8.40967V11.0491C29.0394 12.6658 29.4614 14.1075 30.1999 15.2651C25.0402 15.8827 21.5735 19.1848 21.5735 23.7184V30.2668H19.4619C18.6289 30.2668 17.9537 30.9421 17.9537 31.775V39.3162C17.9537 40.1493 18.6291 40.8244 19.4619 40.8244H23.2325V46.4149H22.1751C19.3234 46.4149 17.0032 48.735 17.0032 51.5868V55.0771C17.0032 56.2064 17.368 57.2517 17.9847 58.1031C17.0956 58.5858 16.3199 59.2508 15.7049 60.0462C15.1216 59.2919 14.3927 58.6562 13.5605 58.1807C14.0934 57.4099 14.4064 56.4763 14.4064 55.4703V51.1934C14.4064 48.5584 12.2628 46.4147 9.6278 46.4147H7.97856C5.12681 46.4147 2.80665 48.7349 2.80665 51.5866V55.0769C2.80665 56.2063 3.17145 57.2515 3.78816 58.103C1.53391 59.3272 0 61.7158 0 64.4564V71.2085C0 72.0414 0.675395 72.7167 1.50818 72.7167H15.7049H29.9016H44.0984H58.2951H72.4918C73.3246 72.7167 74 72.0414 74 71.2085V64.4564C74 61.7718 72.5268 59.426 70.3473 58.1809ZM5.82302 51.5869C5.82302 50.3984 6.78993 49.4315 7.97841 49.4315H9.62795C10.5993 49.4315 11.3901 50.222 11.3901 51.1937V55.4706C11.3901 56.442 10.5996 57.2326 9.62795 57.2326H7.97856C6.79008 57.2326 5.82316 56.2657 5.82316 55.0772V51.5869H5.82302ZM14.1969 69.7003H3.01651V64.4564C3.01651 62.1364 4.90394 60.249 7.22396 60.249H9.98942C12.3094 60.249 14.1969 62.1364 14.1969 64.4564V69.7003ZM50.5686 49.4315H52.2181C53.1895 49.4315 53.9803 50.222 53.9803 51.1937V55.4706C53.9803 56.442 53.1898 57.2326 52.2181 57.2326H50.5686C49.3801 57.2326 48.4132 56.2657 48.4132 55.0772V51.5869C48.4132 50.3984 49.3801 49.4315 50.5686 49.4315ZM32.0559 8.40967C32.0559 6.36383 33.1401 4.29963 35.5625 4.29963H36.5428C38.9652 4.29963 40.0495 6.36383 40.0495 8.40967V11.0491C40.0495 13.0949 38.9652 15.1591 36.5428 15.1591H35.5625C33.1401 15.1591 32.0559 13.0949 32.0559 11.0491V8.40967ZM38.1211 18.1756L36.0527 21.425L33.9844 18.1756H38.1211ZM24.5901 23.7184C24.5901 20.4175 27.3517 18.6897 30.4724 18.2757L34.7804 25.0436C35.0572 25.4787 35.5371 25.742 36.0527 25.742C36.5684 25.742 37.0483 25.4787 37.3251 25.0436L41.6331 18.2757C44.7538 18.6897 47.5154 20.4173 47.5154 23.7184V30.2668H44.8759V26.3956C44.8759 25.5626 44.2006 24.8874 43.3678 24.8874C42.535 24.8874 41.8596 25.5626 41.8596 26.3956V30.2668H30.2461V26.3956C30.2461 25.5626 29.5707 24.8874 28.7379 24.8874C27.9051 24.8874 27.2297 25.5626 27.2297 26.3956V30.2668H24.5903V23.7184H24.5901ZM20.9702 37.808V33.2833H51.1352V37.808H20.9702ZM20.0197 51.5869C20.0197 50.3984 20.9867 49.4315 22.1751 49.4315H23.8247C24.7961 49.4315 25.5868 50.222 25.5868 51.1937V55.4706C25.5868 56.442 24.7964 57.2326 23.8247 57.2326H22.1751C20.9867 57.2326 20.0197 56.2657 20.0197 55.0772V51.5869ZM28.3936 69.7003H17.2134V64.4564H17.2132C17.2132 62.1364 19.1007 60.249 21.4207 60.249H24.1861C26.5062 60.249 28.3936 62.1364 28.3936 64.4564V69.7003ZM42.5902 69.7003H31.41V64.4564H31.4098C31.4098 62.1364 33.2973 60.249 35.6173 60.249H38.3827C40.7027 60.249 42.5902 62.1364 42.5902 64.4564V69.7003ZM34.2165 55.0772V51.5869C34.2165 50.3984 35.1834 49.4315 36.3719 49.4315H38.0214C38.9928 49.4315 39.7835 50.222 39.7835 51.1937V55.4706C39.7835 56.442 38.9931 57.2326 38.0214 57.2326H36.3719C35.1834 57.2325 34.2165 56.2655 34.2165 55.0772ZM44.0984 60.0462C43.515 59.2919 42.7862 58.6562 41.954 58.1807C42.4868 57.4101 42.7999 56.4763 42.7999 55.4703V51.1934C42.7999 48.5584 40.6562 46.4147 38.0213 46.4147H36.3717C33.52 46.4147 31.1998 48.7349 31.1998 51.5866V55.0769C31.1998 56.2063 31.5646 57.2515 32.1813 58.103C31.2922 58.5857 30.5165 59.2507 29.9015 60.0461C29.3182 59.2917 28.5893 58.6561 27.7571 58.1806C28.29 57.4098 28.603 56.4761 28.603 55.4702V51.1932C28.603 49.443 27.6565 47.9102 26.2489 47.0778V40.8241H45.8563V49.4591C45.5619 50.1087 45.3965 50.8283 45.3965 51.5865V55.0768C45.3965 56.2061 45.7613 57.2514 46.3781 58.1028C45.489 58.586 44.7133 59.251 44.0984 60.0462ZM56.7869 69.7003H45.6067V64.4564H45.6065C45.6065 62.1364 47.494 60.249 49.814 60.249H52.5795C54.8995 60.249 56.7869 62.1364 56.7869 64.4564V69.7003ZM62.6098 51.5869C62.6098 50.3984 63.5767 49.4315 64.7652 49.4315H66.4147C67.3861 49.4315 68.1768 50.222 68.1768 51.1937V55.4706C68.1768 56.442 67.3864 57.2326 66.4147 57.2326H64.7652C63.5767 57.2326 62.6098 56.2657 62.6098 55.0772V51.5869ZM70.9836 69.7003H70.9835H59.8033V64.4564C59.8033 62.1364 61.6907 60.249 64.0107 60.249H66.7762C69.0962 60.249 70.9836 62.1364 70.9836 64.4564V69.7003Z" fill="currentColor"/>
			<path d="M36.0532 29.5134C36.8861 29.5134 37.5614 28.8381 37.5614 28.0052C37.5614 27.1722 36.8861 26.497 36.0532 26.497C35.2202 26.497 34.545 27.1722 34.545 28.0052C34.545 28.8381 35.2202 29.5134 36.0532 29.5134Z" fill="currentColor"/>
        </symbol>
		<symbol id="users" width="100%" height="100%" viewBox="0 0 92 92">
            <path d="M34.4993 42.1667C42.9677 42.1667 49.8327 35.3017 49.8327 26.8333C49.8327 18.365 42.9677 11.5 34.4993 11.5C26.031 11.5 19.166 18.365 19.166 26.8333C19.166 35.3017 26.031 42.1667 34.4993 42.1667Z" fill="rgba(0, 0, 0, 0)" stroke="currentColor" stroke-width="7.66667" stroke-linecap="round" stroke-linejoin="round"/>
			<path d="M11.5 80.5V72.8333C11.5 68.7667 13.1155 64.8666 15.991 61.991C18.8666 59.1155 22.7667 57.5 26.8333 57.5H42.1667C46.2333 57.5 50.1334 59.1155 53.009 61.991C55.8845 64.8666 57.5 68.7667 57.5 72.8333V80.5" fill="rgba(0, 0, 0, 0)" stroke="currentColor" stroke-width="7.66667" stroke-linecap="round" stroke-linejoin="round"/>
			<path d="M61.334 11.9983C64.6322 12.8428 67.5556 14.761 69.6433 17.4505C71.7309 20.14 72.864 23.4479 72.864 26.8525C72.864 30.2572 71.7309 33.565 69.6433 36.2545C67.5556 38.944 64.6322 40.8622 61.334 41.7067" fill="rgba(0, 0, 0, 0)" stroke="currentColor" stroke-width="7.66667" stroke-linecap="round" stroke-linejoin="round"/>
			<path d="M80.5 80.5V72.8333C80.4805 69.4491 79.342 66.1664 77.2619 63.4969C75.1817 60.8273 72.2768 58.921 69 58.075" stroke="currentColor" stroke-width="7.66667" stroke-linecap="round" stroke-linejoin="round" fill="rgba(0, 0, 0, 0)"/>
        </symbol>
		<symbol id="chart-bar" width="100%" height="100%" viewBox="0 0 92 92">
            <path d="M30.6667 46H15.3333C13.2162 46 11.5 47.7162 11.5 49.8333V72.8333C11.5 74.9504 13.2162 76.6667 15.3333 76.6667H30.6667C32.7838 76.6667 34.5 74.9504 34.5 72.8333V49.8333C34.5 47.7162 32.7838 46 30.6667 46Z" fill="rgba(0, 0, 0, 0)" stroke="currentColor" stroke-width="5" stroke-linecap="round" stroke-linejoin="round"/>
			<path d="M53.6667 30.6667H38.3333C36.2162 30.6667 34.5 32.3829 34.5 34.5V72.8333C34.5 74.9504 36.2162 76.6667 38.3333 76.6667H53.6667C55.7838 76.6667 57.5 74.9504 57.5 72.8333V34.5C57.5 32.3829 55.7838 30.6667 53.6667 30.6667Z" fill="rgba(0, 0, 0, 0)" stroke="currentColor" stroke-width="5" stroke-linecap="round" stroke-linejoin="round"/>
			<path d="M76.6667 15.3333H61.3333C59.2162 15.3333 57.5 17.0496 57.5 19.1667V72.8333C57.5 74.9504 59.2162 76.6667 61.3333 76.6667H76.6667C78.7838 76.6667 80.5 74.9504 80.5 72.8333V19.1667C80.5 17.0496 78.7838 15.3333 76.6667 15.3333Z" fill="rgba(0, 0, 0, 0)" stroke="currentColor" stroke-width="5" stroke-linecap="round" stroke-linejoin="round"/>
			<path d="M15.334 76.6667H69.0007" fill="rgba(0, 0, 0, 0)" stroke="currentColor" stroke-width="5" stroke-linecap="round" stroke-linejoin="round"/>
        </symbol>
		<symbol id="chart-dots" width="100%" height="100%" viewBox="0 0 92 92">
            <path d="M11.5 11.5V80.5H80.5" fill="rgba(0, 0, 0, 0)" stroke="currentColor" stroke-width="5" stroke-linecap="round" stroke-linejoin="round"/>
			<path d="M34.5007 42.1667C38.7348 42.1667 42.1673 38.7342 42.1673 34.5C42.1673 30.2658 38.7348 26.8333 34.5007 26.8333C30.2665 26.8333 26.834 30.2658 26.834 34.5C26.834 38.7342 30.2665 42.1667 34.5007 42.1667Z" fill="rgba(0, 0, 0, 0)" stroke="currentColor" stroke-width="5" stroke-linecap="round" stroke-linejoin="round"/>
			<path d="M72.8327 34.5C77.0669 34.5 80.4993 31.0675 80.4993 26.8333C80.4993 22.5992 77.0669 19.1667 72.8327 19.1667C68.5985 19.1667 65.166 22.5992 65.166 26.8333C65.166 31.0675 68.5985 34.5 72.8327 34.5Z" fill="rgba(0, 0, 0, 0)" stroke="currentColor" stroke-width="5" stroke-linecap="round" stroke-linejoin="round"/>
			<path d="M53.6667 65.1667C57.9008 65.1667 61.3333 61.7342 61.3333 57.5C61.3333 53.2658 57.9008 49.8333 53.6667 49.8333C49.4325 49.8333 46 53.2658 46 57.5C46 61.7342 49.4325 65.1667 53.6667 65.1667Z" fill="rgba(0, 0, 0, 0)" stroke="currentColor" stroke-width="5" stroke-linecap="round" stroke-linejoin="round"/>
			<path d="M38.9492 40.71L47.9192 51.75" fill="rgba(0, 0, 0, 0)" stroke="currentColor" stroke-width="5" stroke-linecap="round" stroke-linejoin="round"/>
			<path d="M57.8379 51.0907L68.7131 33.511" fill="rgba(0, 0, 0, 0)" stroke="currentColor" stroke-width="5" stroke-linecap="round" stroke-linejoin="round"/>
        </symbol>
		<symbol id="chart-donut" width="100%" height="100%" viewBox="0 0 92 92">
            <path d="M38.3357 12.2667C32.3392 13.6568 26.8239 16.6259 22.3617 20.8661C17.8996 25.1063 14.6531 30.4631 12.9591 36.3809C11.2651 42.2987 11.1853 48.562 12.7278 54.5211C14.2704 60.4801 17.3792 65.918 21.7318 70.2706C26.0844 74.6232 31.5222 77.732 37.4813 79.2745C43.4403 80.8171 49.7036 80.7372 55.6214 79.0432C61.5392 77.3492 66.896 74.1028 71.1362 69.6406C75.3764 65.1785 78.3455 59.6631 79.7357 53.6667C79.7357 52.65 79.3318 51.675 78.6129 50.9561C77.894 50.2372 76.919 49.8333 75.9023 49.8333H61.3357C60.6388 52.5128 59.2464 54.9607 57.2995 56.9292C55.3526 58.8977 52.9203 60.317 50.2486 61.0434C47.5769 61.7698 44.7608 61.7776 42.0852 61.0659C39.4096 60.3542 36.9694 58.9484 35.0117 56.9907C33.0539 55.0329 31.6481 52.5928 30.9364 49.9172C30.2248 47.2415 30.2326 44.4254 30.959 41.7537C31.6854 39.0821 33.1046 36.6497 35.0731 34.7028C37.0416 32.7559 39.4895 31.3636 42.169 30.6667V15.3333C42.1214 14.8792 41.9841 14.439 41.765 14.0383C41.546 13.6376 41.2496 13.2844 40.893 12.9992C40.5364 12.7139 40.1268 12.5023 39.6878 12.3765C39.2488 12.2508 38.7892 12.2134 38.3357 12.2667Z" stroke="currentColor" stroke-width="5" stroke-linecap="round" stroke-linejoin="round" fill="rgba(0, 0, 0, 0)"/>
			<path d="M57.5 13.4167C62.3673 15.1305 66.7881 17.9143 70.4369 21.5631C74.0857 25.2119 76.8695 29.6327 78.5833 34.5H61.3333C60.1581 33.1237 58.8763 31.8419 57.5 30.6667V13.4167Z" fill="rgba(0, 0, 0, 0)" stroke="currentColor" stroke-width="5" stroke-linecap="round" stroke-linejoin="round"/>
        </symbol>
		<symbol id="i" width="100%" height="100%" viewBox="0 0 20 20">
            <path fill-rule="evenodd" clip-rule="evenodd" d="M18 10C18 14.4183 14.4183 18 10 18C5.58172 18 2 14.4183 2 10C2 5.58172 5.58172 2 10 2C14.4183 2 18 5.58172 18 10ZM11 6C11 6.55228 10.5523 7 10 7C9.44772 7 9 6.55228 9 6C9 5.44772 9.44772 5 10 5C10.5523 5 11 5.44772 11 6ZM9 9C8.44772 9 8 9.44772 8 10C8 10.5523 8.44772 11 9 11V14C9 14.5523 9.44772 15 10 15H11C11.5523 15 12 14.5523 12 14C12 13.4477 11.5523 13 11 13V10C11 9.44772 10.5523 9 10 9H9Z" fill="currentColor"/>
        </symbol>
		<symbol id="doc" width="100%" height="100%" viewBox="0 0 30 38">
            <path fill-rule="evenodd" clip-rule="evenodd" d="M15.0007 0.666626V9.83319L15.0006 9.93293V9.93295C15.0005 10.7104 15.0003 11.466 15.0841 12.0891C15.1786 12.7917 15.4087 13.5934 16.0746 14.2592C16.7405 14.9251 17.5422 15.1553 18.2447 15.2497C18.8679 15.3335 19.6235 15.3334 20.4009 15.3332L20.5007 15.3332H29.6673V26.3333C29.6673 31.5187 29.6673 34.1115 28.0564 35.7224C26.4455 37.3333 23.8528 37.3333 18.6673 37.3333H11.334C6.14854 37.3333 3.55581 37.3333 1.9449 35.7224C0.333984 34.1115 0.333984 31.5187 0.333984 26.3333V11.6666C0.333984 6.48118 0.333984 3.88845 1.9449 2.27754C3.55581 0.666626 6.14854 0.666626 11.334 0.666626H15.0007ZM18.6673 0.675097V9.83319C18.6673 10.7493 18.6712 11.2519 18.7181 11.6006L18.7199 11.6139L18.7333 11.6157C19.082 11.6626 19.5846 11.6665 20.5007 11.6665H29.6588C29.6402 10.9119 29.5802 10.4125 29.3882 9.9489C29.1091 9.27507 28.5792 8.74519 27.5194 7.68541L22.6485 2.81451C21.5888 1.75473 21.0589 1.22484 20.385 0.945734C19.9214 0.753689 19.422 0.693784 18.6673 0.675097ZM7.67023 20.8333C7.67023 19.8208 8.49104 19 9.50356 19L20.5036 19C21.5161 19 22.3369 19.8208 22.3369 20.8333C22.3369 21.8458 21.5161 22.6666 20.5036 22.6666H9.50356C8.49104 22.6666 7.67023 21.8458 7.67023 20.8333ZM9.50356 26.3334C8.49104 26.3334 7.67023 27.1542 7.67023 28.1667C7.67023 29.1792 8.49104 30.0001 9.50356 30.0001H16.8369C17.8494 30.0001 18.6702 29.1793 18.6702 28.1667C18.6702 27.1542 17.8494 26.3334 16.8369 26.3334L9.50356 26.3334Z" fill="currentColor"/>
        </symbol>
	</defs>
</svg>
