<?xml version="1.0" standalone="no"?>
<!DOCTYPE svg PUBLIC "-//W3C//DTD SVG 20010904//EN"
 "http://www.w3.org/TR/2001/REC-SVG-20010904/DTD/svg10.dtd">
<svg version="1.0" xmlns="http://www.w3.org/2000/svg"
 width="260.000000pt" height="260.000000pt" viewBox="0 0 260.000000 260.000000"
 preserveAspectRatio="xMidYMid meet">
<metadata>
Created by potrace 1.14, written by Peter Selinger 2001-2017
</metadata>
<g transform="translate(0.000000,260.000000) scale(0.100000,-0.100000)"
fill="#000000" stroke="none">
<path d="M140 2060 c19 -5 51 -12 70 -15 91 -15 373 -92 533 -146 361 -120
615 -245 832 -410 172 -130 242 -212 250 -294 2 -20 -25 -64 -52 -83 -16 -10
-60 -31 -100 -46 -136 -52 -215 -162 -216 -300 -1 -88 29 -192 49 -175 8 6 14
16 14 21 0 18 74 103 117 136 61 46 152 94 288 152 198 84 306 142 357 191 27
25 48 53 48 62 0 21 -82 102 -178 175 -70 54 -259 182 -267 182 -2 0 -39 21
-82 46 -96 57 -325 173 -413 209 -36 14 -83 35 -106 45 -65 30 -361 127 -472
155 -113 28 -257 57 -367 74 -140 21 -369 37 -305 21z"/>
<path d="M1428 1344 c-49 -15 -88 -53 -88 -86 0 -87 135 -137 236 -88 143 70
14 221 -148 174z"/>
<path d="M2340 969 c-54 -8 -495 -221 -592 -286 -81 -53 -140 -112 -163 -160
-21 -44 -16 -49 21 -18 65 56 184 106 377 160 223 61 388 130 445 185 73 73
26 137 -88 119z"/>
</g>
</svg>
